{"title":"Shetland S02E01 720P x264 Raven Black  pt1  RB58.mp4","uid":9746243,"size":1066301978,"categoryP":"video","categoryS":"hd___tv_shows","magnet":"?xt=urn:btih:8682ad8356905d215c9ff17199ea51d5169aadb9&amp;dn=Shetland+S02E01+720P+x264+Raven+Black++pt1++RB58.mp4&amp;tr=udp%3A%2F%2Ftracker.openbittorrent.com%3A80&amp;tr=udp%3A%2F%2Fopen.demonii.com%3A1337&amp;tr=udp%3A%2F%2Ftracker.coppersurfer.tk%3A6969&amp;tr=udp%3A%2F%2Fexodus.desync.com%3A6969","seeders":1,"leechers":2,"uploader":"RedBaron58","files":1,"time":1394586686,"description":"Shetland Series 2 Episode 1  -  Raven Black pt 1  720P x264 \n &lt;a href=&quot;\nhttp://www.imdb.com/title/tt2396135/&quot; rel=&quot;nofollow&quot; target=&quot;_NEW&quot;&gt;\nhttp://www.imdb.com/title/tt2396135/&lt;/a&gt;\n\nPlease be patient My upload speed is limited, but I am online most the time and during the night.\nThank you for your kind comments and thumbs ups on my other torrents, your feedback is welcome.\n\n\nThe Scotland-based crime drama cosisting of three two-part stories starring Douglas Henshall.\n\n\nAbout the Episode:\nDI Jimmy Perez and his team investigate the murder of a teenage girl whose body was found on a secluded \nbeach, and time and again the same name crops up - that of local recluse Magnus Bain, whose home \noverlooks the crime scene and who had forged an unlikely friendship with the victim. \nBut then the public prosecutor draws attention to the unsolved disappearance of a girl 19 years \npreviously - a case that shares several similarities with this one.\n\n\nI hope you enjoy.\n\n\nTechnical:\n\nGeneral\nComplete name                            : E:Shetland S02E01 720P x264 Raven Black  pt1  RB58.mp4\nFormat                                   : MPEG-4\nFormat profile                           : Base Media\nCodec ID                                 : isom\nFile size                                : 1 017 MiB\nDuration                                 : 59mn 12s\nOverall bit rate mode                    : Variable\nOverall bit rate                         : 2 402 Kbps\nWriting application                      : Lavf54.63.104\n\nVideo\nID                                       : 1\nFormat                                   : AVC\nFormat/Info                              : Advanced Video Codec\nFormat profile                           : &lt;a class=&quot;__cf_email__&quot; href=&quot;/cdn-cgi/l/email-protection&quot; data-cfemail=&quot;7c34151b143c3048524d&quot;&gt;[email&amp;#160;protected]&lt;/a&gt;&lt;script cf-hash='f9e31' type=&quot;text/javascript&quot;&gt;\n/* &lt;![CDATA[ */!function(){try{var t=&quot;currentScript&quot;in document?document.currentScript:function(){for(var t=document.getElementsByTagName(&quot;script&quot;),e=t.length;e--;)if(t[e].getAttribute(&quot;cf-hash&quot;))return t[e]}();if(t&amp;&amp;t.previousSibling){var e,r,n,i,c=t.previousSibling,a=c.getAttribute(&quot;data-cfemail&quot;);if(a){for(e=&quot;&quot;,r=parseInt(a.substr(0,2),16),n=2;a.length-n;n+=2)i=parseInt(a.substr(n,2),16)^r,e+=String.fromCharCode(i);e=document.createTextNode(e),c.parentNode.replaceChild(e,c)}}}catch(u){}}();/* ]]&gt; */&lt;/script&gt;\nFormat settings, CABAC                   : Yes\nFormat settings, ReFrames                : 2 frames\nCodec ID                                 : avc1\nCodec ID/Info                            : Advanced Video Coding\nDuration                                 : 59mn 12s\nBit rate mode                            : Variable\nBit rate                                 : 2 303 Kbps\nMaximum bit rate                         : 3 500 Kbps\nWidth                                    : 1 280 pixels\nHeight                                   : 720 pixels\nDisplay aspect ratio                     : 16:9\nFrame rate mode                          : Constant\nFrame rate                               : 25.000 fps\nColor space                              : YUV\nChroma subsampling                       : 4:2:0\nBit depth                                : 8 bits\nScan type                                : Progressive\nBits/(Pixel*Frame)                       : 0.100\nStream size                              : 975 MiB (96%)\n\nAudio\nID                                       : 2\nFormat                                   : AAC\nFormat/Info                              : Advanced Audio Codec\nFormat profile                           : LC\nCodec ID                                 : 40\nDuration                                 : 59mn 12s\nBit rate mode                            : Constant\nBit rate                                 : 93.5 Kbps\nChannel(s)                               : 2 channels\nChannel positions                        : Front: L R\nSampling rate                            : 48.0 KHz\nCompression mode                         : Lossy\nStream size                              : 39.6 MiB (4%)","torrent":{"xt":"urn:btih:8682ad8356905d215c9ff17199ea51d5169aadb9","amp;dn":"Shetland+S02E01+720P+x264+Raven+Black++pt1++RB58.mp4","amp;tr":["udp%3A%2F%2Ftracker.openbittorrent.com%3A80","udp%3A%2F%2Fopen.demonii.com%3A1337","udp%3A%2F%2Ftracker.coppersurfer.tk%3A6969","udp%3A%2F%2Fexodus.desync.com%3A6969"],"infoHash":"8682ad8356905d215c9ff17199ea51d5169aadb9","infoHashBuffer":{"type":"Buffer","data":[134,130,173,131,86,144,93,33,92,159,241,113,153,234,81,213,22,154,173,185]},"announce":[],"urlList":[]}}